# xmcd
#
# Track frame offsets:
#	150
#	14179
#	28286
#	48974
#	71400
#	86958
#	103596
#	118407
#	137466
#	153801
#	166458
#	186822
#	206025
#
# Disc length: 3052 seconds
#
# Revision: 0
# Processed by: cddbd v1.5.2PL0 Copyright (c) Steve Scherf et al.
# Submitted via: dBpowerAMP V4.0
#
DISCID=ba0bea0d
DTITLE=Michael Buble - Call Me Irresponsible
DYEAR=2007
DGENRE=Swing
TTITLE0=The Best is Yet to Come (Album Version)
TTITLE1=It Had Better be Tonight [Meglio Stasera] (Album Version)
TTITLE2=Me And Mrs. Jones (Album Version)
TTITLE3=I'm Your Man (Album Version)
TTITLE4=Comin' Home Baby [Duet With Boyz ii Men] (Album Version)
TTITLE5=Lost (Album Version)
TTITLE6=Call me Irresponsible (Album Version)
TTITLE7=Wonderful Tonight [Duet With Ivan Lins] (Album Version)
TTITLE8=Everything (Album Version)
TTITLE9=I've Got The World on a String (Album Version)
TTITLE10=Always on my Mind (Album Version)
TTITLE11=That's Life (Album Version)
TTITLE12=Dream (Album Version)
EXTD=
EXTT0=
EXTT1=
EXTT2=
EXTT3=
EXTT4=
EXTT5=
EXTT6=
EXTT7=
EXTT8=
EXTT9=
EXTT10=
EXTT11=
EXTT12=
PLAYORDER=
